<svg width="30" height="30" viewBox="0 0 30 30" fill="none" xmlns="http://www.w3.org/2000/svg">
<g id="icn bx-star">
<path id="Vector" d="M8.7279 17.4264L6.91506 25.2763C6.85893 25.514 6.87578 25.7631 6.96342 25.9911C7.05106 26.2191 7.20541 26.4153 7.40632 26.5542C7.60722 26.6931 7.84534 26.7682 8.08958 26.7696C8.33381 26.7711 8.5728 26.6988 8.77535 26.5624L15.4001 22.1459L22.0248 26.5624C22.2321 26.7 22.4765 26.7708 22.7252 26.7653C22.9739 26.7599 23.215 26.6784 23.416 26.5318C23.617 26.3853 23.7683 26.1807 23.8496 25.9456C23.9308 25.7105 23.9381 25.4561 23.8705 25.2167L21.6452 17.4301L27.164 12.4636C27.3408 12.3045 27.467 12.097 27.5271 11.8669C27.5872 11.6367 27.5785 11.394 27.5022 11.1688C27.4258 10.9435 27.285 10.7456 27.0974 10.5995C26.9097 10.4534 26.6833 10.3654 26.4462 10.3466L19.51 9.79426L16.5085 3.15004C16.4128 2.9361 16.2572 2.75443 16.0605 2.62695C15.8638 2.49947 15.6345 2.43164 15.4001 2.43164C15.1657 2.43164 14.9364 2.49947 14.7397 2.62695C14.543 2.75443 14.3874 2.9361 14.2917 3.15004L11.2902 9.79426L4.35398 10.3454C4.12093 10.3639 3.89814 10.4491 3.71226 10.5908C3.52637 10.7326 3.38526 10.9249 3.30581 11.1448C3.22637 11.3647 3.21194 11.6028 3.26427 11.8306C3.31659 12.0584 3.43345 12.2664 3.60086 12.4296L8.7279 17.4264ZM12.199 12.1631C12.4162 12.146 12.6248 12.0708 12.8029 11.9453C12.981 11.8199 13.1221 11.6489 13.2113 11.4501L15.4001 6.60659L17.5889 11.4501C17.6781 11.6489 17.8192 11.8199 17.9973 11.9453C18.1754 12.0708 18.384 12.146 18.6011 12.1631L23.4337 12.5464L19.454 16.1282C19.1085 16.4397 18.971 16.9191 19.0975 17.3668L20.622 22.7019L16.0766 19.6712C15.8771 19.5373 15.6422 19.4657 15.4019 19.4657C15.1616 19.4657 14.9268 19.5373 14.7273 19.6712L9.97741 22.8381L11.2549 17.3072C11.3018 17.1038 11.2955 16.8917 11.2367 16.6914C11.1778 16.4911 11.0685 16.3093 10.9191 16.1635L7.22288 12.5597L12.199 12.1631Z" fill="#F3CD03"/>
</g>
</svg>
