<svg width="30" height="30" viewBox="0 0 30 30" fill="none" xmlns="http://www.w3.org/2000/svg">
<g id="icn bxs-star">
<path id="Vector" d="M26.7035 11.168C26.627 10.9427 26.4862 10.7448 26.2985 10.5987C26.1109 10.4525 25.8845 10.3645 25.6474 10.3455L18.7112 9.79438L15.7097 3.15016C15.6141 2.93617 15.4586 2.75441 15.262 2.62682C15.0654 2.49924 14.836 2.43128 14.6017 2.43115C14.3673 2.43102 14.1379 2.49873 13.9411 2.6261C13.7444 2.75347 13.5887 2.93505 13.4929 3.14895L10.4914 9.79438L3.55515 10.3455C3.32211 10.364 3.09931 10.4492 2.91343 10.591C2.72754 10.7327 2.58643 10.9251 2.50699 11.1449C2.42754 11.3648 2.41311 11.6029 2.46544 11.8307C2.51776 12.0586 2.63462 12.2665 2.80204 12.4297L7.92785 17.4265L6.11502 25.2765C6.05997 25.5141 6.07762 25.7628 6.16566 25.9902C6.2537 26.2177 6.40807 26.4134 6.60874 26.5521C6.80942 26.6907 7.04713 26.7658 7.29103 26.7677C7.53493 26.7695 7.77376 26.698 7.97652 26.5625L14.6013 22.146L21.226 26.5625C21.4333 26.7001 21.6777 26.7709 21.9264 26.7655C22.1751 26.76 22.4161 26.6785 22.6171 26.532C22.8182 26.3854 22.9695 26.1808 23.0507 25.9457C23.132 25.7106 23.1393 25.4562 23.0717 25.2168L20.8464 17.4302L26.3652 12.4637C26.7266 12.1377 26.8592 11.6291 26.7035 11.168Z" fill="#F3CD03"/>
</g>
</svg>
